<?xml version="1.0" encoding="UTF-8"?>
<svg id="katman_1" data-name="katman 1" xmlns="http://www.w3.org/2000/svg" viewBox="0 0 443 62">
  <defs>
    <style>
      .cls-1 {
        fill: #a99558;
      }

      .cls-1, .cls-2 {
        stroke-width: 0px;
      }

      .cls-2 {
        fill: #b9a361;
      }
    </style>
  </defs>
  <path class="cls-2" d="M326.88,61.77H80.07c-.02-1.86.45-3.49,1.61-5.06,9.12-12.27,18.16-24.6,27.23-36.91,4.79-6.49,10.07-12.63,14.12-19.65h245.81c-.51,2.08-1.13,4.09-2.46,5.87-10.16,13.55-20.38,27.07-30.37,40.75-3.44,4.72-8.36,8.63-9.14,14.99Z"/>
  <path class="cls-1" d="M326.88,61.77c.77-6.36,5.69-10.27,9.14-14.99,9.99-13.68,20.21-27.2,30.37-40.75,1.33-1.78,1.95-3.79,2.46-5.87h58.96c-.06,1.54-.69,2.81-1.61,4.06-10.95,14.84-21.99,29.6-32.68,44.62-2.88,4.05-7.65,7.15-7.68,12.93h-58.96Z"/>
  <path class="cls-1" d="M123.03.15c-4.05,7.02-9.34,13.15-14.12,19.65-9.07,12.31-18.12,24.63-27.23,36.91-1.16,1.56-1.64,3.19-1.61,5.06H21.11c.02-4.28,2.62-7.45,5.1-10.42,10.28-12.27,19.21-25.54,29.03-38.14,3.22-4.14,5.91-8.69,8.84-13.06h58.96Z"/>
  <path class="cls-1" d="M5.12,61.77C.89,62.66-.06,61.01,0,56.79.29,38.91.18,21.02.06,3.13.04.65.62.06,3.12.09c14.65.14,29.31.07,43.97.07-.04,1.73-.87,3.11-1.87,4.47-10.48,14.17-21.08,28.24-31.29,42.61-3.26,4.59-8.44,8.17-8.81,14.54Z"/>
  <path class="cls-1" d="M442.79,4.13c0,18.22-.06,36.44.07,54.66.02,2.49-.56,3.08-3.06,3.05-13.32-.14-26.65-.07-39.97-.07.07-1.9.9-3.48,2.13-4.88,11.09-12.64,19.89-27,30.42-40.06,3.43-4.26,5.48-9.66,10.42-12.7Z"/>
  <path class="cls-2" d="M5.12,61.77c.37-6.36,5.55-9.95,8.81-14.54,10.2-14.36,20.81-28.44,31.29-42.61,1.01-1.36,1.83-2.74,1.87-4.47h16.99c-2.93,4.36-5.61,8.92-8.84,13.06-9.82,12.6-18.75,25.88-29.03,38.14-2.48,2.96-5.08,6.13-5.1,10.42H5.12Z"/>
  <path class="cls-2" d="M442.79,4.13c-4.94,3.04-6.98,8.44-10.42,12.7-10.53,13.06-19.33,27.42-30.42,40.06-1.23,1.4-2.06,2.98-2.13,4.88h-13.99c.03-5.77,4.8-8.88,7.68-12.93,10.68-15.02,21.73-29.79,32.68-44.62.92-1.25,1.55-2.52,1.61-4.06,3.66,0,7.36.29,10.98-.08,3.46-.36,4.76.66,4.01,4.06Z"/>
</svg>